<svg xmlns="http://www.w3.org/2000/svg" width="128" height="128" fill="none" viewBox="0 0 128 128"><circle cx="64" cy="64" r="60" fill="#3C3C3C"/><path stroke="#11999E" stroke-linejoin="round" stroke-width="5" d="M19 74.5L46.5 31L71.5 74.5"/><path stroke="#11999E" stroke-linejoin="round" stroke-width="5" d="M57 74.5L84.5 31L109.5 74.5"/><path fill="#11999E" d="M17.16 90.07C16.6467 90.07 16.1867 89.9867 15.78 89.82C15.3733 89.6533 15.0467 89.4067 14.8 89.08C14.56 88.7533 14.4333 88.36 14.42 87.9H16.24C16.2667 88.16 16.3567 88.36 16.51 88.5C16.6633 88.6333 16.8633 88.7 17.11 88.7C17.3633 88.7 17.5633 88.6433 17.71 88.53C17.8567 88.41 17.93 88.2467 17.93 88.04C17.93 87.8667 17.87 87.7233 17.75 87.61C17.6367 87.4967 17.4933 87.4033 17.32 87.33C17.1533 87.2567 16.9133 87.1733 16.6 87.08C16.1467 86.94 15.7767 86.8 15.49 86.66C15.2033 86.52 14.9567 86.3133 14.75 86.04C14.5433 85.7667 14.44 85.41 14.44 84.97C14.44 84.3167 14.6767 83.8067 15.15 83.44C15.6233 83.0667 16.24 82.88 17 82.88C17.7733 82.88 18.3967 83.0667 18.87 83.44C19.3433 83.8067 19.5967 84.32 19.63 84.98H17.78C17.7667 84.7533 17.6833 84.5767 17.53 84.45C17.3767 84.3167 17.18 84.25 16.94 84.25C16.7333 84.25 16.5667 84.3067 16.44 84.42C16.3133 84.5267 16.25 84.6833 16.25 84.89C16.25 85.1167 16.3567 85.2933 16.57 85.42C16.7833 85.5467 17.1167 85.6833 17.57 85.83C18.0233 85.9833 18.39 86.13 18.67 86.27C18.9567 86.41 19.2033 86.6133 19.41 86.88C19.6167 87.1467 19.72 87.49 19.72 87.91C19.72 88.31 19.6167 88.6733 19.41 89C19.21 89.3267 18.9167 89.5867 18.53 89.78C18.1433 89.9733 17.6867 90.07 17.16 90.07ZM21.6323 83.84C21.3323 83.84 21.0857 83.7533 20.8923 83.58C20.7057 83.4 20.6123 83.18 20.6123 82.92C20.6123 82.6533 20.7057 82.4333 20.8923 82.26C21.0857 82.08 21.3323 81.99 21.6323 81.99C21.9257 81.99 22.1657 82.08 22.3523 82.26C22.5457 82.4333 22.6423 82.6533 22.6423 82.92C22.6423 83.18 22.5457 83.4 22.3523 83.58C22.1657 83.7533 21.9257 83.84 21.6323 83.84ZM22.4823 84.42V90H20.7723V84.42H22.4823ZM25.9916 90.08C25.5049 90.08 25.0716 89.9967 24.6916 89.83C24.3116 89.6633 24.0116 89.4367 23.7916 89.15C23.5716 88.8567 23.4482 88.53 23.4216 88.17H25.1116C25.1316 88.3633 25.2216 88.52 25.3816 88.64C25.5416 88.76 25.7382 88.82 25.9716 88.82C26.1849 88.82 26.3482 88.78 26.4616 88.7C26.5816 88.6133 26.6416 88.5033 26.6416 88.37C26.6416 88.21 26.5582 88.0933 26.3916 88.02C26.2249 87.94 25.9549 87.8533 25.5816 87.76C25.1816 87.6667 24.8482 87.57 24.5816 87.47C24.3149 87.3633 24.0849 87.2 23.8916 86.98C23.6982 86.7533 23.6016 86.45 23.6016 86.07C23.6016 85.75 23.6882 85.46 23.8616 85.2C24.0416 84.9333 24.3016 84.7233 24.6416 84.57C24.9882 84.4167 25.3982 84.34 25.8716 84.34C26.5716 84.34 27.1216 84.5133 27.5216 84.86C27.9282 85.2067 28.1616 85.6667 28.2216 86.24H26.6416C26.6149 86.0467 26.5282 85.8933 26.3816 85.78C26.2416 85.6667 26.0549 85.61 25.8216 85.61C25.6216 85.61 25.4682 85.65 25.3616 85.73C25.2549 85.8033 25.2016 85.9067 25.2016 86.04C25.2016 86.2 25.2849 86.32 25.4516 86.4C25.6249 86.48 25.8916 86.56 26.2516 86.64C26.6649 86.7467 27.0016 86.8533 27.2616 86.96C27.5216 87.06 27.7482 87.2267 27.9416 87.46C28.1416 87.6867 28.2449 87.9933 28.2516 88.38C28.2516 88.7067 28.1582 89 27.9716 89.26C27.7916 89.5133 27.5282 89.7133 27.1816 89.86C26.8416 90.0067 26.4449 90.08 25.9916 90.08ZM32.4077 88.55V90H31.5377C30.9177 90 30.4344 89.85 30.0877 89.55C29.7411 89.2433 29.5677 88.7467 29.5677 88.06V85.84H28.8877V84.42H29.5677V83.06H31.2777V84.42H32.3977V85.84H31.2777V88.08C31.2777 88.2467 31.3177 88.3667 31.3977 88.44C31.4777 88.5133 31.6111 88.55 31.7977 88.55H32.4077ZM38.6202 87.12C38.6202 87.28 38.6102 87.4467 38.5902 87.62H34.7202C34.7469 87.9667 34.8569 88.2333 35.0502 88.42C35.2502 88.6 35.4936 88.69 35.7802 88.69C36.2069 88.69 36.5036 88.51 36.6702 88.15H38.4902C38.3969 88.5167 38.2269 88.8467 37.9802 89.14C37.7402 89.4333 37.4369 89.6633 37.0702 89.83C36.7036 89.9967 36.2936 90.08 35.8402 90.08C35.2936 90.08 34.8069 89.9633 34.3802 89.73C33.9536 89.4967 33.6202 89.1633 33.3802 88.73C33.1402 88.2967 33.0202 87.79 33.0202 87.21C33.0202 86.63 33.1369 86.1233 33.3702 85.69C33.6102 85.2567 33.9436 84.9233 34.3702 84.69C34.7969 84.4567 35.2869 84.34 35.8402 84.34C36.3802 84.34 36.8602 84.4533 37.2802 84.68C37.7002 84.9067 38.0269 85.23 38.2602 85.65C38.5002 86.07 38.6202 86.56 38.6202 87.12ZM36.8702 86.67C36.8702 86.3767 36.7702 86.1433 36.5702 85.97C36.3702 85.7967 36.1202 85.71 35.8202 85.71C35.5336 85.71 35.2902 85.7933 35.0902 85.96C34.8969 86.1267 34.7769 86.3633 34.7302 86.67H36.8702ZM46.6423 84.36C47.3357 84.36 47.8857 84.57 48.2923 84.99C48.7057 85.41 48.9123 85.9933 48.9123 86.74V90H47.2123V86.97C47.2123 86.61 47.1157 86.3333 46.9223 86.14C46.7357 85.94 46.4757 85.84 46.1423 85.84C45.809 85.84 45.5457 85.94 45.3523 86.14C45.1657 86.3333 45.0723 86.61 45.0723 86.97V90H43.3723V86.97C43.3723 86.61 43.2757 86.3333 43.0823 86.14C42.8957 85.94 42.6357 85.84 42.3023 85.84C41.969 85.84 41.7057 85.94 41.5123 86.14C41.3257 86.3333 41.2323 86.61 41.2323 86.97V90H39.5223V84.42H41.2323V85.12C41.4057 84.8867 41.6323 84.7033 41.9123 84.57C42.1923 84.43 42.509 84.36 42.8623 84.36C43.2823 84.36 43.6557 84.45 43.9823 84.63C44.3157 84.81 44.5757 85.0667 44.7623 85.4C44.9557 85.0933 45.219 84.8433 45.5523 84.65C45.8857 84.4567 46.249 84.36 46.6423 84.36ZM49.7683 87.2C49.7683 86.6267 49.8749 86.1233 50.0883 85.69C50.3083 85.2567 50.6049 84.9233 50.9783 84.69C51.3516 84.4567 51.7683 84.34 52.2283 84.34C52.6216 84.34 52.9649 84.42 53.2583 84.58C53.5583 84.74 53.7883 84.95 53.9483 85.21V84.42H55.6583V90H53.9483V89.21C53.7816 89.47 53.5483 89.68 53.2483 89.84C52.9549 90 52.6116 90.08 52.2183 90.08C51.7649 90.08 51.3516 89.9633 50.9783 89.73C50.6049 89.49 50.3083 89.1533 50.0883 88.72C49.8749 88.28 49.7683 87.7733 49.7683 87.2ZM53.9483 87.21C53.9483 86.7833 53.8283 86.4467 53.5883 86.2C53.3549 85.9533 53.0683 85.83 52.7283 85.83C52.3883 85.83 52.0983 85.9533 51.8583 86.2C51.6249 86.44 51.5083 86.7733 51.5083 87.2C51.5083 87.6267 51.6249 87.9667 51.8583 88.22C52.0983 88.4667 52.3883 88.59 52.7283 88.59C53.0683 88.59 53.3549 88.4667 53.5883 88.22C53.8283 87.9733 53.9483 87.6367 53.9483 87.21ZM59.1654 90.08C58.6787 90.08 58.2454 89.9967 57.8654 89.83C57.4854 89.6633 57.1854 89.4367 56.9654 89.15C56.7454 88.8567 56.6221 88.53 56.5954 88.17H58.2854C58.3054 88.3633 58.3954 88.52 58.5554 88.64C58.7154 88.76 58.9121 88.82 59.1454 88.82C59.3587 88.82 59.5221 88.78 59.6354 88.7C59.7554 88.6133 59.8154 88.5033 59.8154 88.37C59.8154 88.21 59.7321 88.0933 59.5654 88.02C59.3987 87.94 59.1287 87.8533 58.7554 87.76C58.3554 87.6667 58.0221 87.57 57.7554 87.47C57.4887 87.3633 57.2587 87.2 57.0654 86.98C56.8721 86.7533 56.7754 86.45 56.7754 86.07C56.7754 85.75 56.8621 85.46 57.0354 85.2C57.2154 84.9333 57.4754 84.7233 57.8154 84.57C58.1621 84.4167 58.5721 84.34 59.0454 84.34C59.7454 84.34 60.2954 84.5133 60.6954 84.86C61.1021 85.2067 61.3354 85.6667 61.3954 86.24H59.8154C59.7887 86.0467 59.7021 85.8933 59.5554 85.78C59.4154 85.6667 59.2287 85.61 58.9954 85.61C58.7954 85.61 58.6421 85.65 58.5354 85.73C58.4287 85.8033 58.3754 85.9067 58.3754 86.04C58.3754 86.2 58.4587 86.32 58.6254 86.4C58.7987 86.48 59.0654 86.56 59.4254 86.64C59.8387 86.7467 60.1754 86.8533 60.4354 86.96C60.6954 87.06 60.9221 87.2267 61.1154 87.46C61.3154 87.6867 61.4187 87.9933 61.4254 88.38C61.4254 88.7067 61.3321 89 61.1454 89.26C60.9654 89.5133 60.7021 89.7133 60.3554 89.86C60.0154 90.0067 59.6187 90.08 59.1654 90.08Z"/><path fill="#fff" d="M68.99 88.76H66.37L65.95 90H64.16L66.7 82.98H68.68L71.22 90H69.41L68.99 88.76ZM68.55 87.44L67.68 84.87L66.82 87.44H68.55ZM73.703 82.6V90H71.993V82.6H73.703ZM78.0523 88.55V90H77.1823C76.5623 90 76.0789 89.85 75.7323 89.55C75.3856 89.2433 75.2123 88.7467 75.2123 88.06V85.84H74.5323V84.42H75.2123V83.06H76.9223V84.42H78.0423V85.84H76.9223V88.08C76.9223 88.2467 76.9623 88.3667 77.0423 88.44C77.1223 88.5133 77.2556 88.55 77.4423 88.55H78.0523ZM81.5448 90.08C80.9981 90.08 80.5048 89.9633 80.0648 89.73C79.6314 89.4967 79.2881 89.1633 79.0348 88.73C78.7881 88.2967 78.6648 87.79 78.6648 87.21C78.6648 86.6367 78.7914 86.1333 79.0448 85.7C79.2981 85.26 79.6448 84.9233 80.0848 84.69C80.5248 84.4567 81.0181 84.34 81.5648 84.34C82.1114 84.34 82.6048 84.4567 83.0448 84.69C83.4848 84.9233 83.8314 85.26 84.0848 85.7C84.3381 86.1333 84.4648 86.6367 84.4648 87.21C84.4648 87.7833 84.3348 88.29 84.0748 88.73C83.8214 89.1633 83.4714 89.4967 83.0248 89.73C82.5848 89.9633 82.0914 90.08 81.5448 90.08ZM81.5448 88.6C81.8714 88.6 82.1481 88.48 82.3748 88.24C82.6081 88 82.7248 87.6567 82.7248 87.21C82.7248 86.7633 82.6114 86.42 82.3848 86.18C82.1648 85.94 81.8914 85.82 81.5648 85.82C81.2314 85.82 80.9548 85.94 80.7348 86.18C80.5148 86.4133 80.4048 86.7567 80.4048 87.21C80.4048 87.6567 80.5114 88 80.7248 88.24C80.9448 88.48 81.2181 88.6 81.5448 88.6ZM94.0811 82.98L91.5911 90H89.4511L86.9611 82.98H88.7811L90.5211 88.28L92.2711 82.98H94.0811ZM94.4558 87.2C94.4558 86.6267 94.5624 86.1233 94.7758 85.69C94.9958 85.2567 95.2924 84.9233 95.6658 84.69C96.0391 84.4567 96.4558 84.34 96.9158 84.34C97.3091 84.34 97.6524 84.42 97.9458 84.58C98.2458 84.74 98.4758 84.95 98.6358 85.21V84.42H100.346V90H98.6358V89.21C98.4691 89.47 98.2358 89.68 97.9358 89.84C97.6424 90 97.2991 90.08 96.9058 90.08C96.4524 90.08 96.0391 89.9633 95.6658 89.73C95.2924 89.49 94.9958 89.1533 94.7758 88.72C94.5624 88.28 94.4558 87.7733 94.4558 87.2ZM98.6358 87.21C98.6358 86.7833 98.5158 86.4467 98.2758 86.2C98.0424 85.9533 97.7558 85.83 97.4158 85.83C97.0758 85.83 96.7858 85.9533 96.5458 86.2C96.3124 86.44 96.1958 86.7733 96.1958 87.2C96.1958 87.6267 96.3124 87.9667 96.5458 88.22C96.7858 88.4667 97.0758 88.59 97.4158 88.59C97.7558 88.59 98.0424 88.4667 98.2758 88.22C98.5158 87.9733 98.6358 87.6367 98.6358 87.21ZM103.293 82.6V90H101.583V82.6H103.293ZM106.242 82.6V90H104.532V82.6H106.242ZM112.741 87.12C112.741 87.28 112.731 87.4467 112.711 87.62H108.841C108.868 87.9667 108.978 88.2333 109.171 88.42C109.371 88.6 109.615 88.69 109.901 88.69C110.328 88.69 110.625 88.51 110.791 88.15H112.611C112.518 88.5167 112.348 88.8467 112.101 89.14C111.861 89.4333 111.558 89.6633 111.191 89.83C110.825 89.9967 110.415 90.08 109.961 90.08C109.415 90.08 108.928 89.9633 108.501 89.73C108.075 89.4967 107.741 89.1633 107.501 88.73C107.261 88.2967 107.141 87.79 107.141 87.21C107.141 86.63 107.258 86.1233 107.491 85.69C107.731 85.2567 108.065 84.9233 108.491 84.69C108.918 84.4567 109.408 84.34 109.961 84.34C110.501 84.34 110.981 84.4533 111.401 84.68C111.821 84.9067 112.148 85.23 112.381 85.65C112.621 86.07 112.741 86.56 112.741 87.12ZM110.991 86.67C110.991 86.3767 110.891 86.1433 110.691 85.97C110.491 85.7967 110.241 85.71 109.941 85.71C109.655 85.71 109.411 85.7933 109.211 85.96C109.018 86.1267 108.898 86.3633 108.851 86.67H110.991Z"/></svg>